<svg xmlns="http://www.w3.org/2000/svg" width="500" height="250" viewBox="0 0 500 250"><rect width="100%" height="100%" fill="#DDDDDD"/><path fill="#999999" d="M116.14 148.735h12.79q3.52 0 5.92-.85 2.4-.84 3.83-2.25t2.07-3.29q.63-1.88.63-4 0-2.21-.7-3.97-.71-1.76-2.21-3.01-1.51-1.24-3.88-1.9t-5.71-.66h-12.74zm10.77-48.32h-10.77v19.65h10.06q6.49 0 9.8-2.35t3.31-7.47q0-5.31-3-7.57-3.01-2.26-9.4-2.26m-23.41-9.77h23.41q6.67 0 11.42 1.27 4.74 1.27 7.78 3.62 3.03 2.35 4.44 5.68 1.41 3.34 1.41 7.52 0 2.4-.71 4.59-.7 2.18-2.18 4.08-1.48 1.91-3.76 3.46t-5.43 2.63q14 3.15 14 15.13 0 4.33-1.64 8-1.65 3.66-4.8 6.32-3.14 2.65-7.75 4.16-4.61 1.5-10.53 1.5H103.5zm85.54 55.5v-8.13q-5.03.24-8.46.87-3.43.64-5.5 1.63-2.07.98-2.96 2.3-.89 1.31-.89 2.86 0 3.06 1.81 4.38 1.81 1.31 4.72 1.31 3.57 0 6.18-1.29t5.1-3.93m-24.53-25.33-2.07-3.71q8.32-7.62 20.02-7.62 4.23 0 7.57 1.39 3.33 1.39 5.64 3.86 2.3 2.46 3.5 5.89t1.2 7.52v30.46h-5.27q-1.64 0-2.54-.49-.89-.5-1.41-2l-1.03-3.48q-1.83 1.65-3.57 2.89-1.74 1.25-3.62 2.09-1.88.85-4.02 1.3-2.14.44-4.72.44-3.06 0-5.64-.82-2.59-.82-4.47-2.47-1.88-1.64-2.91-4.09-1.04-2.44-1.04-5.68 0-1.84.62-3.65.61-1.81 1.99-3.45 1.39-1.65 3.6-3.1 2.21-1.46 5.43-2.54t7.49-1.76q4.28-.69 9.78-.83v-2.82q0-4.84-2.07-7.16-2.07-2.33-5.97-2.33-2.82 0-4.67.66-1.86.66-3.27 1.48t-2.56 1.48-2.56.66q-1.23 0-2.07-.64-.85-.63-1.36-1.48m56.82-8.32.8 3.81q1.45-1.46 3.08-2.7 1.62-1.25 3.43-2.12t3.87-1.36q2.07-.49 4.52-.49 3.94 0 7 1.34 3.05 1.33 5.1 3.76 2.04 2.42 3.1 5.78t1.06 7.4v30.69h-11.61v-30.69q0-4.42-2.02-6.84t-6.16-2.42q-3.01 0-5.64 1.36-2.63 1.37-4.98 3.72v34.87h-11.61v-48.22h7.1q2.25 0 2.96 2.11m53.01 0 .8 3.81q1.46-1.46 3.08-2.7 1.62-1.25 3.43-2.12t3.88-1.36 4.51-.49q3.95 0 7.01 1.34 3.05 1.33 5.1 3.76 2.04 2.42 3.1 5.78 1.05 3.36 1.05 7.4v30.69h-11.6v-30.69q0-4.42-2.03-6.84-2.02-2.42-6.15-2.42-3.01 0-5.64 1.36-2.63 1.37-4.98 3.72v34.87h-11.61v-48.22h7.09q2.26 0 2.96 2.11m52.13 16.45h21.9q0-2.25-.63-4.25-.64-2-1.91-3.5-1.27-1.51-3.22-2.38t-4.53-.87q-5.03 0-7.92 2.87t-3.69 8.13m29.61 7.01h-29.85q.28 3.71 1.32 6.41 1.03 2.7 2.72 4.47 1.7 1.76 4.02 2.63 2.33.87 5.15.87t4.86-.66q2.05-.66 3.58-1.46 1.52-.8 2.68-1.45 1.15-.66 2.23-.66 1.45 0 2.16 1.08l3.34 4.23q-1.93 2.26-4.33 3.78-2.39 1.53-5 2.45-2.61.91-5.31 1.29-2.71.37-5.24.37-5.03 0-9.36-1.66-4.32-1.67-7.52-4.94-3.19-3.26-5.03-8.08-1.83-4.82-1.83-11.16 0-4.94 1.6-9.29 1.6-4.34 4.58-7.56 2.99-3.22 7.29-5.1t9.7-1.88q4.56 0 8.42 1.45 3.85 1.46 6.62 4.26 2.77 2.79 4.35 6.86 1.57 4.06 1.57 9.28 0 2.63-.56 3.55t-2.16.92m21.66-22.66.71 5.45q2.26-4.32 5.36-6.79t7.33-2.47q3.34 0 5.36 1.46l-.75 8.7q-.24.84-.69 1.2-.44.35-1.19.35-.71 0-2.1-.24-1.38-.23-2.7-.23-1.93 0-3.43.56-1.5.57-2.7 1.62-1.2 1.06-2.12 2.57-.91 1.5-1.71 3.43v29.7H367.5v-48.22h6.81q1.79 0 2.49.63.71.64.94 2.28"/></svg>