<svg xmlns="http://www.w3.org/2000/svg" width="620" height="350" viewBox="0 0 620 350"><rect width="100%" height="100%" fill="#DDDDDD"/><path fill="#999999" d="M143.395 204.535h15.91q4.39 0 7.37-1.05t4.77-2.81q1.78-1.75 2.57-4.09t.79-4.97q0-2.75-.88-4.95-.87-2.19-2.75-3.74-1.87-1.55-4.82-2.37-2.96-.82-7.11-.82h-15.85zm13.39-60.13h-13.39v24.45h12.52q8.07 0 12.19-2.93 4.13-2.92 4.13-9.3 0-6.61-3.75-9.42-3.74-2.8-11.7-2.8m-29.13-12.17h29.13q8.31 0 14.22 1.58t9.68 4.5q3.77 2.93 5.53 7.08 1.75 4.15 1.75 9.36 0 2.98-.87 5.71-.88 2.72-2.72 5.08-1.85 2.37-4.68 4.3-2.84 1.93-6.76 3.28 17.43 3.92 17.43 18.84 0 5.38-2.05 9.94-2.04 4.57-5.96 7.87-3.92 3.31-9.66 5.18-5.73 1.87-13.1 1.87h-31.94zm106.47 69.09v-10.12q-6.26.29-10.53 1.08t-6.84 2.02q-2.58 1.23-3.69 2.86-1.11 1.64-1.11 3.57 0 3.8 2.25 5.44t5.88 1.64q4.45 0 7.69-1.61 3.25-1.61 6.35-4.88m-30.54-31.53-2.57-4.63q10.35-9.47 24.92-9.47 5.26 0 9.42 1.72 4.15 1.73 7.02 4.8 2.86 3.07 4.36 7.34 1.49 4.27 1.49 9.36v37.91h-6.55q-2.05 0-3.16-.61-1.11-.62-1.76-2.49l-1.28-4.33q-2.29 2.05-4.45 3.6-2.17 1.55-4.51 2.6t-5 1.61-5.88.56q-3.8 0-7.02-1.03-3.21-1.02-5.55-3.07t-3.63-5.09-1.29-7.08q0-2.28.76-4.53t2.49-4.3q1.72-2.05 4.47-3.86 2.75-1.82 6.76-3.16 4.01-1.35 9.33-2.19 5.33-.85 12.17-1.03v-3.51q0-6.02-2.57-8.92-2.58-2.9-7.43-2.9-3.51 0-5.82.82-2.32.82-4.07 1.85-1.76 1.02-3.19 1.84t-3.19.82q-1.52 0-2.57-.79t-1.7-1.84m70.73-10.36.99 4.74q1.82-1.81 3.84-3.36 2.01-1.55 4.27-2.64 2.25-1.08 4.82-1.69 2.58-.62 5.62-.62 4.91 0 8.71 1.67 3.81 1.67 6.35 4.68 2.55 3.01 3.86 7.2 1.32 4.18 1.32 9.21v38.2h-14.45v-38.2q0-5.5-2.52-8.51-2.51-3.02-7.66-3.02-3.74 0-7.02 1.7t-6.2 4.62v43.41h-14.45v-60.02h8.83q2.81 0 3.69 2.63m65.99 0 .99 4.74q1.82-1.81 3.83-3.36 2.02-1.55 4.27-2.64 2.26-1.08 4.83-1.69 2.57-.62 5.62-.62 4.91 0 8.71 1.67 3.81 1.67 6.35 4.68t3.86 7.2q1.32 4.18 1.32 9.21v38.2h-14.45v-38.2q0-5.5-2.52-8.51-2.51-3.02-7.66-3.02-3.75 0-7.02 1.7-3.28 1.7-6.2 4.62v43.41h-14.45v-60.02h8.83q2.81 0 3.69 2.63m64.87 20.48h27.26q0-2.81-.78-5.3-.79-2.48-2.37-4.36-1.58-1.87-4.01-2.95t-5.65-1.08q-6.26 0-9.85 3.57-3.6 3.56-4.6 10.12m36.86 8.71h-37.15q.35 4.62 1.64 7.99 1.29 3.36 3.39 5.56 2.11 2.19 5 3.27 2.9 1.08 6.41 1.08t6.05-.82q2.55-.81 4.45-1.81 1.9-.99 3.34-1.81 1.43-.82 2.77-.82 1.82 0 2.69 1.34l4.16 5.27q-2.4 2.81-5.38 4.71-2.99 1.9-6.23 3.04-3.25 1.14-6.61 1.61-3.37.47-6.53.47-6.26 0-11.64-2.08t-9.36-6.14q-3.98-4.07-6.26-10.06-2.28-6-2.28-13.9 0-6.14 1.99-11.55t5.7-9.42q3.72-4.01 9.07-6.35t12.08-2.34q5.68 0 10.47 1.82 4.8 1.81 8.25 5.29t5.41 8.54 1.96 11.56q0 3.27-.7 4.41t-2.69 1.14m26.97-28.19.87 6.78q2.81-5.38 6.67-8.45t9.13-3.07q4.15 0 6.67 1.81l-.94 10.82q-.29 1.06-.85 1.5-.55.43-1.49.43-.87 0-2.6-.29t-3.36-.29q-2.4 0-4.27.7-1.88.7-3.37 2.02t-2.63 3.19-2.14 4.27v36.97h-14.45v-60.02h8.49q2.22 0 3.1.79.87.79 1.17 2.84"/></svg>